<svg width="280" height="220" viewBox="0 0 280 220" fill="none" xmlns="http://www.w3.org/2000/svg">
  <ellipse cx="153" cy="171" rx="93" ry="24" fill="#166AF0" fill-opacity="0.22"/>
  <path d="M57 142C92 111 184 105 229 138C235 143 237 152 232 159C216 181 77 182 48 160C42 155 44 147 57 142Z" fill="#C6864B"/>
  <path d="M53 148C97 132 180 127 231 149" stroke="#F0B56E" stroke-width="10" stroke-linecap="round"/>
  <path d="M51 161C91 139 177 139 232 160" stroke="#8E552F" stroke-width="9" stroke-linecap="round"/>
  <path d="M69 132C100 153 161 159 217 132" stroke="#F4C17D" stroke-width="8" stroke-linecap="round"/>
  <path d="M161 31C200 31 227 64 227 103C227 143 196 166 160 166C123 166 94 142 94 105C94 65 122 31 161 31Z" fill="url(#body)"/>
  <path d="M102 99C74 93 54 113 50 142C77 143 100 133 111 112" fill="#5CA2FF"/>
  <path d="M213 99C238 100 252 117 257 144C230 142 213 130 205 111" fill="#73B3FF"/>
  <path d="M116 45C103 46 92 36 91 22C108 21 121 29 126 42" fill="#A9D9FF"/>
  <path d="M94 38C80 32 76 17 83 4C99 12 106 24 102 38" fill="#7CC4FF"/>
  <path d="M95 67C78 61 68 49 65 32C91 35 107 48 112 71" fill="#C3E5FF"/>
  <path d="M90 48C73 47 59 37 53 21C80 18 97 28 106 51" fill="#80D77A"/>
  <path d="M221 72C236 76 249 67 254 50C229 49 215 57 210 75" fill="#7FE082"/>
  <path d="M226 91C245 93 258 105 264 124C237 123 219 112 213 91" fill="#A3E581"/>
  <path d="M197 76C209 83 215 97 214 113C196 111 185 100 183 82" fill="#8BBEFF"/>
  <circle cx="180" cy="78" r="9" fill="#081126"/>
  <circle cx="184" cy="74" r="3" fill="white"/>
  <path d="M129 92C134 118 155 136 185 137" stroke="#9ECFFF" stroke-width="6" stroke-linecap="round"/>
  <path d="M100 84C87 89 86 104 100 112C114 103 114 90 100 84Z" fill="#FFB53E"/>
  <defs>
    <linearGradient id="body" x1="105" y1="41" x2="221" y2="154" gradientUnits="userSpaceOnUse">
      <stop stop-color="#D5ECFF"/>
      <stop offset="0.45" stop-color="#75B5FF"/>
      <stop offset="1" stop-color="#3C8CFF"/>
    </linearGradient>
  </defs>
</svg>
